<svg width="1601" height="1701" viewBox="0 0 1601 1701" fill="none" xmlns="http://www.w3.org/2000/svg">
<rect x="600.992" y="400.094" width="100" height="100" fill="black"/>
<rect x="1000.97" y="1200.09" width="100" height="100" fill="#0A84FF" fill-opacity="0.8"/>
<rect x="900.973" y="1200.09" width="100" height="100" fill="#0A84FF" fill-opacity="0.8"/>
<rect x="800.973" y="1200.09" width="100" height="100" fill="#0A84FF" fill-opacity="0.8"/>
<rect x="700.973" y="1200.09" width="100" height="100" fill="#0A84FF" fill-opacity="0.8"/>
<rect x="1000.97" y="1300.09" width="100" height="100" fill="#0A84FF" fill-opacity="0.9"/>
<rect x="900.973" y="1300.09" width="100" height="100" fill="#0A84FF" fill-opacity="0.8"/>
<rect x="800.973" y="1300.09" width="100" height="100" fill="#0A84FF" fill-opacity="0.9"/>
<rect x="700.973" y="1300.09" width="100" height="100" fill="#0A84FF" fill-opacity="0.9"/>
<rect x="1100.97" y="1300.09" width="100" height="100" fill="#0A84FF" fill-opacity="0.9"/>
<rect x="1000.97" y="1400.09" width="100" height="100" fill="#0A84FF" fill-opacity="0.9"/>
<rect x="900.973" y="1400.09" width="100" height="100" fill="#0A84FF" fill-opacity="0.9"/>
<rect x="800.973" y="1400.09" width="100" height="100" fill="#0A84FF" fill-opacity="0.9"/>
<rect x="700.973" y="1400.09" width="100" height="100" fill="#0A84FF"/>
<rect x="1100.97" y="1400.09" width="100" height="100" fill="#0A84FF" fill-opacity="0.9"/>
<rect x="1000.97" y="1500.09" width="100" height="100" fill="#0A84FF" fill-opacity="0.9"/>
<rect x="900.973" y="1500.09" width="100" height="100" fill="#0A84FF"/>
<rect x="800.973" y="1500.09" width="100" height="100" fill="#0A84FF"/>
<rect x="700.973" y="1500.09" width="100" height="100" fill="#0A84FF"/>
<rect x="600.973" y="1300.09" width="100" height="100" fill="#0A84FF" fill-opacity="0.9"/>
<rect x="600.973" y="1400.09" width="100" height="100" fill="#0A84FF"/>
<rect x="600.973" y="1500.09" width="100" height="100" fill="#0A84FF"/>
<rect x="500.973" y="1500.09" width="100" height="100" fill="#0A84FF"/>
<rect x="1100.97" y="1500.09" width="100" height="100" fill="#0A84FF"/>
<rect x="1200.97" y="1300.09" width="100" height="100" fill="#0A84FF" fill-opacity="0.9"/>
<rect x="1200.97" y="1400.09" width="100" height="100" fill="#0A84FF"/>
<rect x="1200.97" y="1500.09" width="100" height="100" fill="#0A84FF"/>
<rect x="1300.97" y="1400.09" width="100" height="100" fill="#0A84FF"/>
<rect x="1300.97" y="1500.09" width="100" height="100" fill="#0A84FF"/>
<rect x="1400.97" y="1500.09" width="100" height="100" fill="#0A84FF"/>
<rect x="400.973" y="500.117" width="100" height="100" fill="white"/>
<rect x="300.973" y="500.117" width="100" height="100" fill="black"/>
<rect x="700.973" y="500.117" width="100" height="100" fill="white"/>
<rect x="700.973" y="400.117" width="100" height="100" fill="black"/>
<rect x="800.973" y="500.117" width="100" height="100" fill="white"/>
<rect x="800.973" y="400.117" width="100" height="100" fill="black"/>
<rect x="900.973" y="500.117" width="100" height="100" fill="white"/>
<rect x="900.973" y="400.082" width="100" height="100" fill="black"/>
<rect x="500.973" y="600.117" width="100" height="100" fill="white"/>
<rect x="500.973" y="500.117" width="100" height="100" fill="white"/>
<rect x="500.973" y="400.117" width="100" height="100" fill="black"/>
<rect x="800.973" y="600.117" width="100" height="100" fill="white"/>
<rect x="900.973" y="600.117" width="100" height="100" fill="white"/>
<rect x="500.973" y="800.117" width="100" height="100" fill="white"/>
<rect x="400.973" y="800.117" width="100" height="100" fill="white"/>
<rect x="300.973" y="800.117" width="100" height="100" fill="white"/>
<rect x="300.973" y="700.117" width="100" height="100" fill="white"/>
<rect x="200.973" y="800.117" width="100" height="100" fill="white"/>
<rect x="600.973" y="900.117" width="100" height="100" fill="white"/>
<rect x="500.973" y="900.117" width="100" height="100" fill="white"/>
<rect x="400.973" y="900.117" width="100" height="100" fill="white"/>
<rect x="300.973" y="900.117" width="100" height="100" fill="white"/>
<rect x="600.973" y="1000.12" width="100" height="100" fill="white"/>
<rect x="500.973" y="1000.12" width="100" height="100" fill="white"/>
<rect x="400.973" y="1000.12" width="100" height="100" fill="white"/>
<rect x="300.973" y="1000.12" width="100" height="100" fill="white"/>
<rect x="1000.97" y="1000.12" width="100" height="100" fill="white"/>
<rect x="900.973" y="1000.12" width="100" height="100" fill="white"/>
<rect x="800.973" y="1000.12" width="100" height="100" fill="white"/>
<rect x="700.973" y="1000.12" width="100" height="100" fill="white"/>
<rect x="1200.97" y="900.117" width="100" height="100" fill="white"/>
<rect x="1300.97" y="900.117" width="100" height="100" fill="white"/>
<rect x="1200.97" y="1000.12" width="100" height="100" fill="white"/>
<rect x="1100.97" y="1000.12" width="100" height="100" fill="white"/>
<rect x="600.973" y="1100.12" width="100" height="100" fill="white"/>
<rect x="500.973" y="1100.12" width="100" height="100" fill="white"/>
<rect x="400.973" y="1100.12" width="100" height="100" fill="white"/>
<rect x="1000.97" y="1100.12" width="100" height="100" fill="white"/>
<rect x="900.973" y="1100.12" width="100" height="100" fill="white"/>
<rect x="800.973" y="1100.12" width="100" height="100" fill="white"/>
<rect x="700.973" y="1100.12" width="100" height="100" fill="white"/>
<rect x="1100.97" y="1100.12" width="100" height="100" fill="white"/>
<rect x="1100.97" y="900.117" width="100" height="100" fill="white"/>
<rect x="1000.97" y="900.117" width="100" height="100" fill="white"/>
<rect x="900.973" y="900.117" width="100" height="100" fill="white"/>
<rect x="200.973" y="700.117" width="100" height="100" fill="white"/>
<rect x="200.973" y="600.117" width="100" height="100" fill="black"/>
<rect x="200.973" y="900.117" width="100" height="100" fill="white"/>
<rect x="300.973" y="600.117" width="100" height="100" fill="white"/>
<rect x="600.973" y="700.117" width="100" height="100" fill="white"/>
<rect x="500.996" y="700.117" width="100" height="100" fill="white"/>
<rect x="900.949" y="700.082" width="100" height="100" fill="white"/>
<rect x="600.973" y="600.121" width="100" height="100" fill="white"/>
<rect x="700.973" y="700.117" width="100" height="100" fill="white"/>
<rect x="800.973" y="700.117" width="100" height="100" fill="white"/>
<rect x="900.973" y="800.117" width="100" height="100" fill="white"/>
<rect x="1000.97" y="800.117" width="100" height="100" fill="white"/>
<rect x="1100.97" y="800.117" width="100" height="100" fill="white"/>
<rect x="1200.97" y="800.117" width="100" height="100" fill="white"/>
<rect x="1300.97" y="800.117" width="100" height="100" fill="white"/>
<rect x="1300.97" y="700.117" width="100" height="100" fill="white"/>
<rect x="1300.97" y="600.117" width="100" height="100" fill="black"/>
<rect x="1200.97" y="700.117" width="100" height="100" fill="white"/>
<rect x="1100.97" y="700.117" width="100" height="100" fill="white"/>
<rect x="1100.97" y="600.117" width="100" height="100" fill="white"/>
<rect x="1000.97" y="500.117" width="100" height="100" fill="white"/>
<rect x="1000.97" y="400.082" width="100" height="100" fill="black"/>
<rect x="1200.97" y="500.117" width="100" height="100" fill="black"/>
<rect x="800.992" y="100.086" width="100" height="100" fill="#0A84FF" fill-opacity="0.8"/>
<rect x="900.992" y="100.086" width="100" height="100" fill="#0A84FF" fill-opacity="0.9"/>
<rect x="1000.99" y="100.086" width="100" height="100" fill="#0A84FF" fill-opacity="0.9"/>
<rect x="1100.97" y="100.086" width="100" height="100" fill="#0A84FF" fill-opacity="0.9"/>
<rect x="700.992" y="100.086" width="100" height="100" fill="#0A84FF" fill-opacity="0.9"/>
<rect x="700.973" y="0.0859375" width="100" height="100" fill="#0A84FF" fill-opacity="0.8"/>
<rect x="800.992" y="0.0859375" width="100" height="100" fill="#0A84FF" fill-opacity="0.8"/>
<rect x="900.973" y="0.0859375" width="100" height="100" fill="#0A84FF" fill-opacity="0.8"/>
<rect x="600.992" y="100.086" width="100" height="100" fill="#0A84FF" fill-opacity="0.9"/>
<rect x="500.992" y="100.086" width="100" height="100" fill="#0A84FF" fill-opacity="0.9"/>
<rect x="800.992" y="200.086" width="100" height="100" fill="#0A84FF"/>
<rect x="700.992" y="200.086" width="100" height="100" fill="#0A84FF"/>
<rect x="600.992" y="200.086" width="100" height="100" fill="#0A84FF"/>
<rect x="500.992" y="200.086" width="100" height="100" fill="#0A84FF" fill-opacity="0.9"/>
<rect x="900.992" y="200.086" width="100" height="100" fill="#0A84FF"/>
<rect x="800.992" y="300.086" width="100" height="100" fill="#0A84FF"/>
<rect x="700.992" y="300.086" width="100" height="100" fill="#0A84FF"/>
<rect x="600.992" y="300.086" width="100" height="100" fill="#0A84FF"/>
<rect x="500.992" y="300.086" width="100" height="100" fill="#0A84FF"/>
<rect x="900.992" y="300.086" width="100" height="100" fill="#0A84FF"/>
<rect x="400.992" y="200.086" width="100" height="100" fill="#0A84FF" fill-opacity="0.9"/>
<rect x="400.992" y="300.086" width="100" height="100" fill="#0A84FF"/>
<rect x="400.992" y="400.086" width="100" height="100" fill="#0A84FF"/>
<rect x="300.992" y="400.086" width="100" height="100" fill="#0A84FF"/>
<rect x="200.992" y="500.086" width="100" height="100" fill="#0A84FF"/>
<rect x="100.973" y="600.086" width="100" height="100" fill="#0A84FF"/>
<rect x="100.973" y="500.082" width="100" height="100" fill="#0A84FF"/>
<rect x="200.973" y="400.082" width="100" height="100" fill="#0A84FF"/>
<rect x="200.973" y="300.082" width="100" height="100" fill="#0A84FF"/>
<rect x="100.996" y="400.078" width="100" height="100" fill="#0A84FF"/>
<rect x="300.973" y="300.086" width="100" height="100" fill="#0A84FF"/>
<rect x="300.973" y="200.086" width="100" height="100" fill="#0A84FF"/>
<rect x="100.996" y="700.09" width="100" height="100" fill="#0A84FF"/>
<rect x="0.996094" y="800.086" width="100" height="100" fill="#0A84FF"/>
<rect x="0.996094" y="900.086" width="100" height="100" fill="#0A84FF"/>
<rect x="0.996094" y="700.086" width="100" height="100" fill="#0A84FF"/>
<rect x="100.973" y="900.098" width="100" height="100" fill="#0A84FF"/>
<rect x="100.996" y="1000.1" width="100" height="100" fill="#0A84FF"/>
<rect x="200.973" y="1100.1" width="100" height="100" fill="#0A84FF"/>
<rect x="100.996" y="1100.09" width="100" height="100" fill="#0A84FF"/>
<rect x="200.973" y="1200.09" width="100" height="100" fill="#0A84FF"/>
<rect x="200.973" y="1200.09" width="100" height="100" fill="#0A84FF"/>
<rect x="300.996" y="1200.09" width="100" height="100" fill="#0A84FF"/>
<rect x="400.996" y="1300.1" width="100" height="100" fill="#0A84FF"/>
<rect x="400.996" y="1400.09" width="100" height="100" fill="#0A84FF"/>
<rect x="500.973" y="1400.1" width="100" height="100" fill="#0A84FF"/>
<rect x="100.973" y="800.094" width="100" height="100" fill="#0A84FF"/>
<rect x="1000.99" y="200.086" width="100" height="100" fill="#0A84FF" fill-opacity="0.9"/>
<rect x="1100.99" y="200.086" width="100" height="100" fill="#0A84FF" fill-opacity="0.9"/>
<rect x="1200.97" y="200.086" width="100" height="100" fill="#0A84FF" fill-opacity="0.9"/>
<rect x="1000.99" y="300.086" width="100" height="100" fill="#0A84FF"/>
<rect x="1100.99" y="300.086" width="100" height="100" fill="#0A84FF"/>
<rect x="1200.99" y="300.086" width="100" height="100" fill="#0A84FF"/>
<rect x="1100.99" y="400.086" width="100" height="100" fill="#0A84FF"/>
<rect x="1200.99" y="400.086" width="100" height="100" fill="#0A84FF"/>
<rect x="1300.99" y="500.086" width="100" height="100" fill="#0A84FF"/>
<rect x="1300.97" y="400.086" width="100" height="100" fill="#0A84FF"/>
<rect x="1300.99" y="300.078" width="100" height="100" fill="#0A84FF"/>
<rect x="1400.97" y="500.082" width="100" height="100" fill="#0A84FF"/>
<rect x="1400.97" y="400.117" width="100" height="100" fill="#0A84FF"/>
<rect x="1400.99" y="600.086" width="100" height="100" fill="#0A84FF"/>
<rect x="1400.99" y="700.09" width="100" height="100" fill="#0A84FF"/>
<rect x="1400.97" y="1000.1" width="100" height="100" fill="#0A84FF"/>
<rect x="1500.97" y="700.086" width="100" height="100" fill="#0A84FF"/>
<rect x="1500.97" y="900.086" width="100" height="100" fill="#0A84FF"/>
<rect x="1500.97" y="1000.1" width="100" height="100" fill="#0A84FF"/>
<rect x="1500.97" y="800.086" width="100" height="100" fill="#0A84FF"/>
<rect x="1400.97" y="1100.1" width="100" height="100" fill="#0A84FF"/>
<rect x="1200.97" y="1200.09" width="100" height="100" fill="#0A84FF"/>
<rect x="1300.99" y="1200.1" width="100" height="100" fill="#0A84FF"/>
<rect x="1400.97" y="900.094" width="100" height="100" fill="#0A84FF"/>
<rect x="1400.99" y="800.09" width="100" height="100" fill="#0A84FF"/>
<rect x="500.949" y="1300.12" width="100" height="100" fill="white"/>
<rect x="500.996" y="1400.13" width="100" height="100" fill="white"/>
<rect x="400.996" y="1500.13" width="100" height="100" fill="white"/>
<rect x="300.973" y="1600.09" width="100" height="100" fill="white"/>
<rect x="1100.97" y="1300.13" width="100" height="100" fill="white"/>
<rect x="1101.02" y="1400.12" width="100" height="100" fill="white"/>
<rect x="1101.02" y="1500.1" width="100" height="100" fill="white"/>
<rect x="1001.02" y="1600.09" width="100" height="100" fill="white"/>
<rect x="600.992" y="500.09" width="100" height="100" fill="#FFD60A" fill-opacity="0.5"/>
<rect x="700.973" y="600.082" width="100" height="100" fill="#FFD60A" fill-opacity="0.5"/>
<rect x="1100.97" y="500.09" width="100" height="100" fill="#FFD60A" fill-opacity="0.5"/>
<rect x="1200.97" y="600.082" width="100" height="100" fill="#FFD60A" fill-opacity="0.5"/>
</svg>
